<svg width="96" height="96" viewBox="0 0 96 96" fill="none" xmlns="http://www.w3.org/2000/svg">
<path fill-rule="evenodd" clip-rule="evenodd" d="M59 28C58.4477 28 58 28.4477 58 29C58 29.5523 58.4477 30 59 30H60.4648L60.8465 30.5725L59.7007 31.0881C59.2109 31.3085 58.9827 31.8766 59.1839 32.3746L60.6034 35.8879L41.6966 40.8235L40.9 38.5H42C42.5523 38.5 43 38.0523 43 37.5C43 36.9477 42.5523 36.5 42 36.5H39.5H38.2361L37.4472 36.1056C36.9532 35.8586 36.3526 36.0588 36.1056 36.5528C35.8586 37.0468 36.0588 37.6474 36.5528 37.8944L37.5528 38.3944C37.6916 38.4639 37.8448 38.5 38 38.5H38.7857L39.9614 41.929L37.1149 44.3207C34.5663 41.6581 30.9768 40 27 40C19.268 40 13 46.268 13 54C13 61.732 19.268 68 27 68C33.6838 68 39.2736 63.3163 40.6664 57.0519L43.0356 57.4379C43.1339 56.739 43.4128 56.098 43.8237 55.5638L43.8266 55.5646C43.3082 56.2391 43 57.0836 43 58C43 60.2091 44.7909 62 47 62C48.8638 62 50.4299 60.7252 50.874 59H52C52.5523 59 53 58.5523 53 58C53 57.4477 52.5523 57 52 57H50.874C50.6126 55.9844 49.9624 55.1249 49.0915 54.5897L61.5469 38.2231L62.8404 41.4243C58.1967 43.7031 55 48.4783 55 54C55 61.732 61.268 68 69 68C76.732 68 83 61.732 83 54C83 46.268 76.732 40 69 40C67.4978 40 66.0509 40.2366 64.6945 40.6745L61.3986 32.5172L62.7437 31.9119C63.0118 31.7913 63.2132 31.5588 63.2944 31.2763C63.3756 30.9938 63.3284 30.6899 63.1654 30.4453L61.8321 28.4453C61.6466 28.1671 61.3344 28 61 28H59ZM48.7324 57C48.3866 56.4022 47.7403 56 47 56C45.8954 56 45 56.8954 45 58C45 59.1046 45.8954 60 47 60C47.7403 60 48.3866 59.5978 48.7324 59H47C46.4477 59 46 58.5523 46 58C46 57.4477 46.4477 57 47 57H48.7324ZM40.9793 54.7674L43.6198 55.5067L40.9595 55.0733C40.9672 54.9717 40.9738 54.8697 40.9793 54.7674ZM43.9349 53.5183L40.9385 52.6794C40.7019 50.1507 39.7928 47.8173 38.3917 45.8601L40.6567 43.957L43.9349 53.5183ZM35.7477 51.226L36.6817 51.4876C36.3973 50.3884 35.9307 49.3627 35.316 48.4444L30.6512 52.3639C30.8029 52.7019 30.909 53.0648 30.9618 53.4447L34.8604 54.0798L34.0321 53.8479L34.5328 51.9242C34.6719 51.3897 35.2158 51.0771 35.7477 51.226ZM36.2069 53.4312L35.9901 54.2638L36.9911 54.4269C36.997 54.2853 37 54.143 37 54C37 53.8834 36.998 53.7672 36.994 53.6516L36.2069 53.4312ZM47.0269 54.0001L58.8991 38.3998L42.3471 42.7207L46.2391 54.0723C46.4854 54.0248 46.7398 54 47 54L47.0269 54.0001ZM34.0434 46.9014C32.236 45.1079 29.7474 44 27 44C21.4772 44 17 48.4772 17 54C17 59.5228 21.4772 64 27 64C31.693 64 35.6309 60.7673 36.7084 56.4072L30.7352 55.4342C30.1586 56.9349 28.7037 58 27 58C24.7909 58 23 56.2091 23 54C23 51.7909 24.7909 50 27 50C27.9014 50 28.7331 50.2981 29.402 50.8012L34.0434 46.9014ZM27.7849 52.1599C27.5439 52.057 27.2786 52 27 52C25.8954 52 25 52.8954 25 54C25 55.1046 25.8954 56 27 56C27.699 56 28.3143 55.6414 28.6719 55.0981L27.1512 54.8504C26.3071 54.7129 26.0139 53.6479 26.6687 53.0978L27.7849 52.1599ZM59 54C59 50.158 61.1666 46.8221 64.3447 45.1474L66.6218 50.7834C65.6379 51.5121 65 52.6816 65 54C65 56.2091 66.7909 58 69 58C71.2091 58 73 56.2091 73 54C73 51.7909 71.2091 50 69 50C68.8224 50 68.6476 50.0116 68.4761 50.034L66.1988 44.3976C67.0876 44.1388 68.0276 44 69 44C74.5229 44 79 48.4772 79 54C79 59.5228 74.5229 64 69 64C63.4772 64 59 59.5228 59 54ZM67.4239 52.7686L68.0728 54.3746C68.2797 54.8867 68.8625 55.1341 69.3746 54.9272C69.8867 54.7203 70.1341 54.1374 69.9272 53.6254L69.2782 52.0192C70.2511 52.1546 71 52.9898 71 54C71 55.1046 70.1046 56 69 56C67.8954 56 67 55.1046 67 54C67 53.5356 67.1583 53.1081 67.4239 52.7686Z" fill="#3B82F6"/>
</svg>
