<svg width="96" height="96" viewBox="0 0 96 96" fill="none" xmlns="http://www.w3.org/2000/svg">
<path fill-rule="evenodd" clip-rule="evenodd" d="M58 29C58 28.4477 58.4477 28 59 28H61C61.3344 28 61.6466 28.1671 61.8321 28.4453L63.1654 30.4453C63.3284 30.6899 63.3756 30.9938 63.2944 31.2763C63.2132 31.5588 63.0118 31.7913 62.7437 31.9119L61.3986 32.5172L64.6945 40.6745C66.0509 40.2366 67.4978 40 69 40C76.732 40 83 46.268 83 54C83 61.732 76.732 68 69 68C61.268 68 55 61.732 55 54C55 48.4783 58.1967 43.7031 62.8404 41.4243L61.5469 38.2231L49.0915 54.5897C49.9624 55.1249 50.6126 55.9844 50.874 57H52C52.5523 57 53 57.4477 53 58C53 58.5523 52.5523 59 52 59H50.874C50.4299 60.7252 48.8638 62 47 62C44.7909 62 43 60.2091 43 58C43 56.7728 43.5526 55.6747 44.4226 54.941L40.6567 43.957L38.3917 45.8601C40.0336 48.1538 41 50.964 41 54C41 54.3611 40.9863 54.7191 40.9595 55.0733L43.8401 55.5426C43.4203 56.081 43.1352 56.7297 43.0356 57.4379L40.6664 57.0519C39.2736 63.3163 33.6838 68 27 68C19.268 68 13 61.732 13 54C13 46.268 19.268 40 27 40C30.9768 40 34.5663 41.6581 37.1149 44.3207L39.9614 41.929L38.7857 38.5H38C37.8448 38.5 37.6916 38.4639 37.5528 38.3944L36.5528 37.8944C36.0588 37.6474 35.8586 37.0468 36.1056 36.5528C36.3526 36.0588 36.9532 35.8586 37.4472 36.1056L38.2361 36.5H39.5H42C42.5523 36.5 43 36.9477 43 37.5C43 38.0523 42.5523 38.5 42 38.5H40.9L41.6966 40.8235L60.6034 35.8879L59.1839 32.3746C58.9827 31.8766 59.2109 31.3085 59.7007 31.0881L60.8465 30.5725L60.4648 30H59C58.4477 30 58 29.5523 58 29ZM48.7324 57H47C46.4477 57 46 57.4477 46 58C46 58.5523 46.4477 59 47 59H48.7324C48.3866 59.5978 47.7403 60 47 60C45.8954 60 45 59.1046 45 58C45 56.8954 45.8954 56 47 56C47.7403 56 48.3866 56.4022 48.7324 57ZM58.8991 38.3998L47.0269 54.0001L47 54C46.7398 54 46.4854 54.0248 46.2391 54.0723L42.3471 42.7207L58.8991 38.3998ZM27 42C30.3621 42 33.4013 43.3827 35.5799 45.6104L29.402 50.8012C28.7331 50.2981 27.9014 50 27 50C24.7909 50 23 51.7909 23 54C23 56.2091 24.7909 58 27 58C28.7037 58 30.1586 56.9349 30.7352 55.4342L38.6882 56.7297C37.4524 62.042 32.6884 66 27 66C20.3726 66 15 60.6274 15 54C15 47.3726 20.3726 42 27 42ZM36.855 47.1513L30.6512 52.3639C30.8029 52.7019 30.909 53.0648 30.9618 53.4447L38.9769 54.7504C38.9922 54.5022 39 54.252 39 54C39 51.4541 38.2072 49.0934 36.855 47.1513ZM27 52C27.2786 52 27.5439 52.057 27.7849 52.1599L26.6687 53.0978C26.0139 53.6479 26.3071 54.7129 27.1512 54.8504L28.6719 55.0981C28.3143 55.6414 27.699 56 27 56C25.8954 56 25 55.1046 25 54C25 52.8954 25.8954 52 27 52ZM63.5921 43.2848C59.6813 45.2624 57 49.3181 57 54C57 60.6274 62.3726 66 69 66C75.6274 66 81 60.6274 81 54C81 47.3726 75.6274 42 69 42C67.7627 42 66.5692 42.1872 65.4462 42.535L68.4761 50.034C68.6476 50.0116 68.8224 50 69 50C71.2091 50 73 51.7909 73 54C73 56.2091 71.2091 58 69 58C66.7909 58 65 56.2091 65 54C65 52.6816 65.6379 51.5121 66.6218 50.7834L63.5921 43.2848ZM68.0728 54.3746L67.4239 52.7686C67.1583 53.1081 67 53.5356 67 54C67 55.1046 67.8954 56 69 56C70.1046 56 71 55.1046 71 54C71 52.9898 70.2511 52.1546 69.2782 52.0192L69.9272 53.6254C70.1341 54.1374 69.8867 54.7203 69.3746 54.9272C68.8625 55.1341 68.2797 54.8867 68.0728 54.3746Z" fill="#FF0000"/>
</svg>
