<svg width="96" height="96" viewBox="0 0 96 96" fill="none" xmlns="http://www.w3.org/2000/svg">
<path fill-rule="evenodd" clip-rule="evenodd" d="M32.6056 28.803C32.8526 28.309 33.4532 28.1088 33.9472 28.3558L34.7361 28.7502H36H38.5C39.0523 28.7502 39.5 29.1979 39.5 29.7502C39.5 30.3025 39.0523 30.7502 38.5 30.7502H37.4498L41.2255 40.6864C41.2597 40.675 41.2946 40.6654 41.33 40.6577L60.0423 36.6061L57.0909 30.1669C56.9492 29.8576 56.9744 29.4975 57.1578 29.211C57.3412 28.9246 57.6577 28.7509 57.9979 28.7502L66.7455 28.7316C68.423 28.728 70 29.8834 70 31.7915C70 33.4796 68.6459 35.2268 66.7524 35.2268H65C64.4477 35.2268 64 34.7791 64 34.2268C64 33.6745 64.4477 33.2268 65 33.2268H66.7524C67.3415 33.2268 68 32.586 68 31.7915C68 31.2132 67.5586 30.7299 66.7497 30.7316L59.5568 30.7469L62.3605 36.864C62.3754 36.8928 62.3889 36.9223 62.401 36.9524L64.0891 40.6355C65.6172 40.063 67.2721 39.75 69 39.75C76.732 39.75 83 46.018 83 53.75C83 61.482 76.732 67.75 69 67.75C61.268 67.75 55 61.482 55 53.75C55 48.4567 57.9376 43.8496 62.2715 41.4699L61.2386 39.2163L49.1706 54.3697C48.5778 53.9852 47.8769 53.7533 47.1234 53.7298L58.941 38.8909L41.9953 42.56L41.9515 42.5969L46.2187 53.8265C46.4714 53.7764 46.7326 53.7502 47 53.7502C48.8638 53.7502 50.4299 55.025 50.874 56.7502H52C52.5523 56.7502 53 57.1979 53 57.7502C53 58.3025 52.5523 58.7502 52 58.7502H50.874C50.4299 60.4754 48.8638 61.7502 47 61.7502C44.7909 61.7502 43 59.9594 43 57.7502C43 56.5283 43.5479 55.4344 44.4114 54.7007L40.3298 43.9595L38.3818 45.5962C40.0297 47.8925 41 50.7079 41 53.75C41 54.1037 40.9869 54.4543 40.9611 54.8014L43.8401 55.2703C43.4202 55.8088 43.1352 56.4574 43.0356 57.1656L40.6711 56.7805C39.2864 63.0556 33.6914 67.75 27 67.75C19.268 67.75 13 61.482 13 53.75C13 46.018 19.268 39.75 27 39.75C30.9706 39.75 34.5552 41.403 37.1031 44.0583L39.5773 41.9794L35.3102 30.7502H34.5C34.3448 30.7502 34.1916 30.7141 34.0528 30.6446L33.0528 30.1446C32.5588 29.8977 32.3586 29.297 32.6056 28.803ZM48.7324 56.7502H47C46.4477 56.7502 46 57.1979 46 57.7502C46 58.3025 46.4477 58.7502 47 58.7502H48.7324C48.3866 59.348 47.7403 59.7502 47 59.7502C45.8954 59.7502 45 58.8548 45 57.7502C45 56.6456 45.8954 55.7502 47 55.7502C47.7403 55.7502 48.3866 56.1524 48.7324 56.7502ZM27 41.75C30.356 41.75 33.3902 43.1276 35.5679 45.3482L26.6687 52.8255C26.0139 53.3757 26.3071 54.4406 27.1512 54.5781L38.6931 56.4583C37.4652 61.7813 32.6961 65.75 27 65.75C20.3726 65.75 15 60.3774 15 53.75C15 47.1226 20.3726 41.75 27 41.75ZM29.6241 52.9546L38.9783 54.4784C38.9927 54.2374 39 53.9946 39 53.75C39 51.198 38.2034 48.832 36.8452 46.8873L29.6241 52.9546ZM63.1075 43.2939C59.4615 45.3531 57 49.2641 57 53.75C57 60.3774 62.3726 65.75 69 65.75C75.6274 65.75 81 60.3774 81 53.75C81 47.1226 75.6274 41.75 69 41.75C67.5694 41.75 66.1974 42.0003 64.9251 42.4596L69.9091 53.3336C70.1392 53.8356 69.9187 54.4292 69.4167 54.6593C68.9146 54.8894 68.321 54.6689 68.0909 54.1669L63.1075 43.2939Z" fill="#3B82F6"/>
</svg>
