<svg width="96" height="96" viewBox="0 0 96 96" fill="none" xmlns="http://www.w3.org/2000/svg">
<rect width="3.63154" height="1.73216" transform="translate(71.4841 38.411) rotate(16.2284)" fill="#FF0000"/>
<rect width="3.63154" height="1.73216" transform="translate(29.4841 38.411) rotate(16.2284)" fill="#FF0000"/>
<rect width="3.63154" height="1.73216" transform="translate(80.3576 43.411) rotate(51.6059)" fill="#FF0000"/>
<rect width="3.63154" height="1.73216" transform="translate(38.3576 43.411) rotate(51.6059)" fill="#FF0000"/>
<rect width="3.63154" height="1.73216" transform="translate(84.1546 54.6304) rotate(98.4242)" fill="#FF0000"/>
<rect width="3.63154" height="1.73216" transform="translate(42.2455 54.6647) rotate(98.4242)" fill="#FF0000"/>
<rect width="3.63154" height="1.73216" transform="translate(80.0455 63.7424) rotate(137.397)" fill="#FF0000"/>
<rect width="3.63154" height="1.73216" transform="translate(37.8456 63.6859) rotate(137.397)" fill="#FF0000"/>
<rect width="3.63154" height="1.73216" transform="translate(67.558 68.8352) rotate(-168.449)" fill="#FF0000"/>
<rect width="3.63154" height="1.73216" transform="translate(25.558 68.8352) rotate(-168.449)" fill="#FF0000"/>
<rect width="3.63154" height="1.73216" transform="translate(56.7314 62.429) rotate(-118.474)" fill="#FF0000"/>
<rect width="3.63154" height="1.73216" transform="translate(14.7314 62.429) rotate(-118.474)" fill="#FF0000"/>
<rect width="3.63154" height="1.73216" transform="translate(54 49.8158) rotate(-69.649)" fill="#FF0000"/>
<rect width="3.63154" height="1.73216" transform="translate(12 49.8158) rotate(-69.649)" fill="#FF0000"/>
<rect width="3.63154" height="1.73216" transform="translate(60 41.205) rotate(-29.6045)" fill="#FF0000"/>
<rect width="3.63154" height="1.73216" transform="translate(18 41.205) rotate(-29.6045)" fill="#FF0000"/>
<path fill-rule="evenodd" clip-rule="evenodd" d="M32.6056 28.553C32.8526 28.059 33.4532 27.8588 33.9472 28.1058L34.7361 28.5002H36H38.5C39.0523 28.5002 39.5 28.9479 39.5 29.5002C39.5 30.0525 39.0523 30.5002 38.5 30.5002H37.4498L41.2255 40.4364C41.2597 40.425 41.2946 40.4154 41.33 40.4077L60.0423 36.3561L57.0909 29.9169C56.9492 29.6076 56.9744 29.2475 57.1578 28.961C57.3412 28.6746 57.6577 28.5009 57.9979 28.5002L66.7455 28.4816C68.423 28.478 70 29.6334 70 31.5415C70 33.2296 68.6459 34.9768 66.7524 34.9768H65C64.4477 34.9768 64 34.5291 64 33.9768C64 33.4245 64.4477 32.9768 65 32.9768H66.7524C67.3415 32.9768 68 32.336 68 31.5415C68 30.9632 67.5586 30.4799 66.7497 30.4816L59.5568 30.4969L62.3605 36.614C62.3754 36.6428 62.3889 36.6723 62.401 36.7024L64.0891 40.3855C65.6172 39.813 67.2721 39.5 69 39.5C76.732 39.5 83 45.768 83 53.5C83 61.232 76.732 67.5 69 67.5C61.268 67.5 55 61.232 55 53.5C55 48.2067 57.9376 43.5996 62.2715 41.2199L61.2386 38.9663L49.1706 54.1197C48.5778 53.7352 47.8769 53.5033 47.1234 53.4798L58.941 38.6409L41.9953 42.31L41.9515 42.3469L46.2187 53.5765C46.4714 53.5264 46.7326 53.5002 47 53.5002C48.8638 53.5002 50.4299 54.775 50.874 56.5002H52C52.5523 56.5002 53 56.9479 53 57.5002C53 58.0525 52.5523 58.5002 52 58.5002H50.874C50.4299 60.2254 48.8638 61.5002 47 61.5002C44.7909 61.5002 43 59.7094 43 57.5002C43 56.2783 43.5479 55.1844 44.4114 54.4507L40.3298 43.7095L38.3818 45.3462C40.0297 47.6425 41 50.4579 41 53.5C41 53.8537 40.9869 54.2043 40.9611 54.5514L43.8401 55.0203C43.4202 55.5588 43.1352 56.2074 43.0356 56.9156L40.6711 56.5305C39.2864 62.8056 33.6914 67.5 27 67.5C19.268 67.5 13 61.232 13 53.5C13 45.768 19.268 39.5 27 39.5C30.9706 39.5 34.5552 41.153 37.1031 43.8083L39.5773 41.7294L35.3102 30.5002H34.5C34.3448 30.5002 34.1916 30.4641 34.0528 30.3946L33.0528 29.8946C32.5588 29.6477 32.3586 29.047 32.6056 28.553ZM48.7324 56.5002H47C46.4477 56.5002 46 56.9479 46 57.5002C46 58.0525 46.4477 58.5002 47 58.5002H48.7324C48.3866 59.098 47.7403 59.5002 47 59.5002C45.8954 59.5002 45 58.6048 45 57.5002C45 56.3956 45.8954 55.5002 47 55.5002C47.7403 55.5002 48.3866 55.9024 48.7324 56.5002ZM27 41.5C30.356 41.5 33.3902 42.8776 35.5679 45.0982L26.6687 52.5755C26.0139 53.1257 26.3071 54.1906 27.1512 54.3281L38.6931 56.2083C37.4652 61.5313 32.6961 65.5 27 65.5C20.3726 65.5 15 60.1274 15 53.5C15 46.8726 20.3726 41.5 27 41.5ZM29.6241 52.7046L38.9783 54.2284C38.9927 53.9874 39 53.7446 39 53.5C39 50.948 38.2034 48.582 36.8452 46.6373L29.6241 52.7046ZM63.1075 43.0439C59.4615 45.1031 57 49.0141 57 53.5C57 60.1274 62.3726 65.5 69 65.5C75.6274 65.5 81 60.1274 81 53.5C81 46.8726 75.6274 41.5 69 41.5C67.5694 41.5 66.1974 41.7503 64.9251 42.2096L69.9091 53.0836C70.1392 53.5856 69.9187 54.1792 69.4167 54.4093C68.9146 54.6394 68.321 54.4189 68.0909 53.9169L63.1075 43.0439Z" fill="#FF0000"/>
</svg>
