<svg width="96" height="96" viewBox="0 0 96 96" fill="none" xmlns="http://www.w3.org/2000/svg">
<path fill-rule="evenodd" clip-rule="evenodd" d="M32.6056 28.553C32.8526 28.059 33.4532 27.8588 33.9472 28.1058L34.7361 28.5002H36H38.5C39.0523 28.5002 39.5 28.9479 39.5 29.5002C39.5 30.0525 39.0523 30.5002 38.5 30.5002H37.4498L41.2255 40.4364C41.2597 40.425 41.2946 40.4154 41.33 40.4077L60.0423 36.3561L57.0909 29.9169C56.9492 29.6076 56.9744 29.2475 57.1578 28.961C57.3412 28.6746 57.6577 28.5009 57.9979 28.5002L66.7455 28.4816C68.423 28.478 70 29.6334 70 31.5415C70 33.2296 68.6459 34.9768 66.7524 34.9768H65C64.4477 34.9768 64 34.5291 64 33.9768C64 33.4245 64.4477 32.9768 65 32.9768H66.7524C67.3415 32.9768 68 32.336 68 31.5415C68 30.9632 67.5586 30.4799 66.7497 30.4816L59.5568 30.4969L62.3605 36.614C62.3754 36.6428 62.3889 36.6723 62.401 36.7024L64.0891 40.3855C65.6172 39.813 67.2721 39.5 69 39.5C76.732 39.5 83 45.768 83 53.5C83 61.232 76.732 67.5 69 67.5C61.268 67.5 55 61.232 55 53.5C55 48.2067 57.9376 43.5996 62.2715 41.2199L61.2386 38.9663L49.1706 54.1197C48.5778 53.7352 47.8769 53.5033 47.1234 53.4798L58.941 38.6409L41.9953 42.31L41.9515 42.3469L46.2187 53.5765C46.4714 53.5264 46.7326 53.5002 47 53.5002C48.8638 53.5002 50.4299 54.775 50.874 56.5002H52C52.5523 56.5002 53 56.9479 53 57.5002C53 58.0525 52.5523 58.5002 52 58.5002H50.874C50.4299 60.2254 48.8638 61.5002 47 61.5002C44.7909 61.5002 43 59.7094 43 57.5002C43 56.2783 43.5479 55.1844 44.4114 54.4507L40.3298 43.7095L38.3818 45.3462C40.0297 47.6425 41 50.4579 41 53.5C41 53.8537 40.9869 54.2043 40.9611 54.5514L43.8401 55.0203C43.4202 55.5588 43.1352 56.2074 43.0356 56.9156L40.6711 56.5305C39.2864 62.8056 33.6914 67.5 27 67.5C19.268 67.5 13 61.232 13 53.5C13 45.768 19.268 39.5 27 39.5C30.9706 39.5 34.5552 41.153 37.1031 43.8083L39.5773 41.7294L35.3102 30.5002H34.5C34.3448 30.5002 34.1916 30.4641 34.0528 30.3946L33.0528 29.8946C32.5588 29.6477 32.3586 29.047 32.6056 28.553ZM48.7324 56.5002H47C46.4477 56.5002 46 56.9479 46 57.5002C46 58.0525 46.4477 58.5002 47 58.5002H48.7324C48.3866 59.098 47.7403 59.5002 47 59.5002C45.8954 59.5002 45 58.6048 45 57.5002C45 56.3956 45.8954 55.5002 47 55.5002C47.7403 55.5002 48.3866 55.9024 48.7324 56.5002ZM27 43.5C29.7412 43.5 32.2248 44.603 34.0313 46.3893L26.6687 52.5755C26.0139 53.1257 26.3071 54.1906 27.1512 54.3281L36.7136 55.8858C35.6437 60.2567 31.7006 63.5 27 63.5C21.4772 63.5 17 59.0228 17 53.5C17 47.9772 21.4772 43.5 27 43.5ZM29.6241 52.7046L36.992 53.9048C36.9973 53.7705 37 53.6356 37 53.5C37 51.4381 36.376 49.522 35.3065 47.9301L29.6241 52.7046ZM63.9445 44.8702C60.9861 46.607 59 49.8215 59 53.5C59 59.0228 63.4772 63.5 69 63.5C74.5229 63.5 79 59.0228 79 53.5C79 47.9772 74.5229 43.5 69 43.5C67.8668 43.5 66.7777 43.6885 65.7622 44.0358L69.9091 53.0836C70.1392 53.5856 69.9187 54.1792 69.4167 54.4093C68.9146 54.6394 68.321 54.4189 68.0909 53.9169L63.9445 44.8702Z" fill="black"/>
<rect x="45" y="39.8458" width="14.7858" height="0.528442" rx="0.264221" transform="rotate(-12.0859 45 39.8458)" fill="white" style="mix-blend-mode:lighten"/>
</svg>
