<svg width="96" height="96" viewBox="0 0 96 96" fill="none" xmlns="http://www.w3.org/2000/svg">
<rect width="3.63154" height="1.73216" transform="translate(71.4841 44) rotate(16.2284)" fill="#3B82F6"/>
<rect width="3.63154" height="1.73216" transform="translate(29.4841 44) rotate(16.2284)" fill="#3B82F6"/>
<rect width="3.63154" height="1.73216" transform="translate(80.3575 49) rotate(51.6059)" fill="#3B82F6"/>
<rect width="3.63154" height="1.73216" transform="translate(38.3575 49) rotate(51.6059)" fill="#3B82F6"/>
<rect width="3.63154" height="1.73216" transform="translate(84.1545 60.2194) rotate(98.4242)" fill="#3B82F6"/>
<rect width="3.63154" height="1.73216" transform="translate(42.2455 60.2538) rotate(98.4242)" fill="#3B82F6"/>
<rect width="3.63154" height="1.73216" transform="translate(80.0455 69.3314) rotate(137.397)" fill="#3B82F6"/>
<rect width="3.63154" height="1.73216" transform="translate(37.8456 69.275) rotate(137.397)" fill="#3B82F6"/>
<rect width="3.63154" height="1.73216" transform="translate(67.558 74.4243) rotate(-168.449)" fill="#3B82F6"/>
<rect width="3.63154" height="1.73216" transform="translate(25.558 74.4243) rotate(-168.449)" fill="#3B82F6"/>
<rect width="3.63154" height="1.73216" transform="translate(56.7313 68.0181) rotate(-118.474)" fill="#3B82F6"/>
<rect width="3.63154" height="1.73216" transform="translate(14.7313 68.0181) rotate(-118.474)" fill="#3B82F6"/>
<rect width="3.63154" height="1.73216" transform="translate(54 55.4048) rotate(-69.649)" fill="#3B82F6"/>
<rect width="3.63154" height="1.73216" transform="translate(12 55.4048) rotate(-69.649)" fill="#3B82F6"/>
<rect width="3.63154" height="1.73216" transform="translate(60 46.794) rotate(-29.6045)" fill="#3B82F6"/>
<rect width="3.63154" height="1.73216" transform="translate(18 46.794) rotate(-29.6045)" fill="#3B82F6"/>
<path fill-rule="evenodd" clip-rule="evenodd" d="M32.6056 34.142C32.8526 33.648 33.4532 33.4478 33.9472 33.6948L34.7361 34.0892H36H38.5C39.0523 34.0892 39.5 34.537 39.5 35.0892C39.5 35.6415 39.0523 36.0892 38.5 36.0892H37.4498L41.2255 46.0254C41.2597 46.014 41.2946 46.0044 41.33 45.9968L60.0423 41.9451L57.0909 35.5059C56.9492 35.1967 56.9744 34.8366 57.1578 34.5501C57.3412 34.2636 57.6577 34.09 57.9979 34.0892L66.7455 34.0706C68.423 34.067 70 35.2224 70 37.1305C70 38.8186 68.6459 40.5658 66.7524 40.5658H65C64.4477 40.5658 64 40.1181 64 39.5658C64 39.0135 64.4477 38.5658 65 38.5658H66.7524C67.3415 38.5658 68 37.925 68 37.1305C68 36.5522 67.5586 36.0689 66.7497 36.0706L59.5568 36.0859L62.3605 42.203C62.3754 42.2318 62.3889 42.2613 62.401 42.2915L64.0891 45.9745C65.6172 45.4021 67.2721 45.089 69 45.089C76.732 45.089 83 51.357 83 59.089C83 66.821 76.732 73.089 69 73.089C61.268 73.089 55 66.821 55 59.089C55 53.7958 57.9376 49.1886 62.2715 46.8089L61.2386 44.5554L49.1706 59.7087C48.5778 59.3242 47.8769 59.0923 47.1234 59.0688L58.941 44.2299L41.9953 47.8991L41.9515 47.9359L46.2187 59.1655C46.4714 59.1155 46.7326 59.0892 47 59.0892C48.8638 59.0892 50.4299 60.364 50.874 62.0892H52C52.5523 62.0892 53 62.537 53 63.0892C53 63.6415 52.5523 64.0892 52 64.0892H50.874C50.4299 65.8145 48.8638 67.0892 47 67.0892C44.7909 67.0892 43 65.2984 43 63.0892C43 61.8673 43.5479 60.7734 44.4114 60.0397L40.3298 49.2985L38.3818 50.9352C40.0297 53.2315 41 56.0469 41 59.089C41 59.4427 40.9869 59.7933 40.9611 60.1404L43.8401 60.6094C43.4202 61.1478 43.1352 61.7965 43.0356 62.5047L40.6711 62.1195C39.2864 68.3946 33.6914 73.089 27 73.089C19.268 73.089 13 66.821 13 59.089C13 51.357 19.268 45.089 27 45.089C30.9706 45.089 34.5552 46.742 37.1031 49.3974L39.5773 47.3184L35.3102 36.0892H34.5C34.3448 36.0892 34.1916 36.0531 34.0528 35.9837L33.0528 35.4837C32.5588 35.2367 32.3586 34.636 32.6056 34.142ZM48.7324 62.0892H47C46.4477 62.0892 46 62.537 46 63.0892C46 63.6415 46.4477 64.0892 47 64.0892H48.7324C48.3866 64.687 47.7403 65.0892 47 65.0892C45.8954 65.0892 45 64.1938 45 63.0892C45 61.9847 45.8954 61.0892 47 61.0892C47.7403 61.0892 48.3866 61.4914 48.7324 62.0892ZM27 47.089C30.356 47.089 33.3902 48.4666 35.5679 50.6872L26.6687 58.1646C26.0139 58.7147 26.3071 59.7797 27.1512 59.9172L38.6931 61.7973C37.4652 67.1204 32.6961 71.089 27 71.089C20.3726 71.089 15 65.7164 15 59.089C15 52.4616 20.3726 47.089 27 47.089ZM29.6241 58.2936L38.9783 59.8174C38.9927 59.5764 39 59.3336 39 59.089C39 56.537 38.2034 54.1711 36.8452 52.2263L29.6241 58.2936ZM63.1075 48.633C59.4615 50.6921 57 54.6031 57 59.089C57 65.7164 62.3726 71.089 69 71.089C75.6274 71.089 81 65.7164 81 59.089C81 52.4616 75.6274 47.089 69 47.089C67.5694 47.089 66.1974 47.3393 64.9251 47.7986L69.9091 58.6726C70.1392 59.1746 69.9187 59.7682 69.4167 59.9983C68.9146 60.2284 68.321 60.008 68.0909 59.5059L63.1075 48.633Z" fill="#3B82F6"/>
<rect x="46" y="45.0958" width="14.7858" height="0.528442" rx="0.264221" transform="rotate(-12.0859 46 45.0958)" fill="white" style="mix-blend-mode:lighten"/>
</svg>
