<!DOCTYPE svg PUBLIC "-//W3C//DTD SVG 1.1//EN" "http://www.w3.org/Graphics/SVG/1.1/DTD/svg11.dtd">
<!-- Uploaded to: SVG Repo, www.svgrepo.com, Transformed by: SVG Repo Mixer Tools -->
<svg height="800px" width="800px" version="1.1" id="Layer_1" xmlns="http://www.w3.org/2000/svg" xmlns:xlink="http://www.w3.org/1999/xlink" viewBox="0 0 512 512" xml:space="preserve" fill="#000000">
<g id="SVGRepo_bgCarrier" stroke-width="0"/>
<g id="SVGRepo_tracerCarrier" stroke-linecap="round" stroke-linejoin="round"/>
<g id="SVGRepo_iconCarrier"> <path style="fill:#DC2626;" d="M356.086,284.161c0,10.055-0.332,20.03-0.973,29.913c-4.684,71.827-26.111,139.074-60.387,197.926 l-38.731-41.319L217.263,512c-11.36-19.503-21.312-39.922-29.695-61.131c-20.339-51.397-31.562-107.386-31.654-165.998v-0.71 C155.914,176.58,193.397,77.76,255.994,0c25.08,31.15,46.129,65.689,62.357,102.817 C342.618,158.348,356.086,219.685,356.086,284.161z"/> <path style="fill:#F8717167;" d="M356.086,284.161c0,10.055-0.332,20.03-0.973,29.913c-75.996,41.228-132.558,96.369-167.544,136.795 c-20.339-51.397-31.562-107.386-31.654-165.998c90.998-69.835,139.143-139.612,162.436-182.054 C342.618,158.348,356.086,219.685,356.086,284.161z"/> <path style="fill:#F8717167;" d="M329.746,284.161c0,15.46-0.836,30.863-2.497,46.141c-5.142,47.446-18.186,93.701-38.571,136.726 l-32.684-34.86l-32.673,34.86c-5.898-12.448-11.189-25.172-15.85-38.124c-16.606-46.175-25.218-95.178-25.218-144.743 c0-6.997,0.172-13.96,0.504-20.912c2.027-42.315,10.25-83.749,24.507-123.454c12.174-33.852,28.504-65.895,48.729-95.602 c18.472,27.13,33.703,56.207,45.465,86.83c1.122,2.909,2.21,5.829,3.264,8.772C321.328,186.016,329.746,234.585,329.746,284.161z"/> <path style="fill:#F8717167;" d="M329.746,284.161c0,15.46-0.836,30.863-2.497,46.141c-49.885,31.092-90.059,67.258-119.777,98.602 c-16.606-46.175-25.218-95.178-25.218-144.743c0-6.997,0.172-13.96,0.504-20.911c57.535-48.568,95.052-95.762,118.701-132.226 c1.122,2.909,2.21,5.829,3.264,8.772C321.328,186.016,329.746,234.585,329.746,284.161z"/> <path style="fill:#DC2626;" d="M263.435,241.042c0.011,31.86-0.492,63.708-1.58,95.568c-0.183,5.108-0.378,10.227-0.595,15.334 c-1.111,26.741-2.657,53.481-5.257,80.222c-2.325-23.843-3.802-47.686-4.89-71.53c-0.366-8.016-0.687-16.021-0.973-24.026 c-1.088-31.86-1.592-63.708-1.58-95.568c0-22.87,0.263-45.751,0.825-68.632c0.206-8.978,0.47-17.945,0.779-26.924 c1.157-31.86,2.748-63.708,5.841-95.568c3.081,31.86,4.672,63.708,5.829,95.568c0.137,4.031,0.263,8.074,0.378,12.105 C263.045,185.408,263.435,213.225,263.435,241.042z"/> </g>
</svg>