<svg width="96" height="96" viewBox="0 0 96 96" fill="none" xmlns="http://www.w3.org/2000/svg">
<path fill-rule="evenodd" clip-rule="evenodd" d="M61.4358 31.3999C63.206 30.5423 63.6743 28.5211 62.8542 26.8701C62.0241 25.1991 60.0025 23.9989 56.9995 24C56.4472 24.0002 55.9996 24.4481 55.9998 25.0004C56 25.5526 56.4479 26.0002 57.0002 26C59.4972 25.9991 60.6706 26.97 61.063 27.7599C61.4654 28.57 61.1838 29.2997 60.5638 29.6001C60.308 29.724 59.8058 29.7587 59.2072 29.6968C58.9374 29.669 58.6936 29.6268 58.517 29.5914C58.4294 29.5738 58.3599 29.5582 58.314 29.5474C58.2911 29.542 58.2741 29.5379 58.2638 29.5353L58.2538 29.5328L58.2535 29.5327L58.2534 29.5327L58.2533 29.5327L58.2525 29.5324C57.8876 29.4372 57.5001 29.5553 57.2503 29.838C57.0003 30.121 56.9311 30.5208 57.0714 30.8714L59.7522 37.5735L59.5216 37.7098C58.9257 38.0627 58.1099 38.549 57.2309 39.0827C55.4906 40.1393 53.4463 41.4151 52.3998 42.2C50.3031 43.7725 49.7009 45.9416 49.2509 47.7869C49.225 47.893 49.1996 47.9978 49.1746 48.1012C48.7418 49.8871 48.4087 51.2617 47.3216 52.2652C46.5797 52.9499 46.0315 53.09 45.7508 53.1146C45.7305 53.1164 45.711 53.1176 45.6924 53.1184L42.5451 46.1916C42.5339 46.1669 42.5219 46.143 42.5091 46.1198L40.8132 42.0498L42.3714 41.4265C42.8842 41.2214 43.1336 40.6394 42.9285 40.1267C42.7234 39.6139 42.1414 39.3645 41.6286 39.5696L39.1559 40.5587L36.5767 41.4184L34.9472 40.6036C34.4532 40.3566 33.8526 40.5569 33.6056 41.0508C33.3586 41.5448 33.5588 42.1455 34.0528 42.3925L36.0528 43.3925C36.29 43.5111 36.5646 43.5306 36.8162 43.4467L38.9344 42.7407L40.423 46.3133L37.5057 48.7441C34.9403 45.8339 31.1845 43.998 27 43.998C19.268 43.998 13 50.2661 13 57.998C13 65.73 19.268 71.998 27 71.998C33.7089 71.998 39.3156 67.2791 40.6819 60.9793L43.0017 61.1158C43.0314 62.1441 43.4492 63.0751 44.1138 63.7675C44.8668 64.6054 45.9672 65.1219 47.1818 65.0941C47.8925 65.0779 48.5557 64.8772 49.1266 64.5389L49.2929 64.7052C49.4804 64.8927 49.7348 64.998 50 64.998H52C52.5523 64.998 53 64.5503 53 63.998C53 63.4458 52.5523 62.998 52 62.998H50.6094C50.9302 62.4061 51.1057 61.725 51.0892 61.0037C51.0734 60.3126 50.8832 59.6664 50.5616 59.1063C51.1372 58.669 51.7251 58.1846 52.2052 57.7069C53.7409 56.1787 54.0464 54.549 54.2404 53.0777C54.2587 52.9395 54.276 52.8034 54.293 52.669L54.2931 52.6684L54.2933 52.6674C54.4587 51.3655 54.6028 50.2326 55.3499 49.0267C56.2146 47.631 58.1164 46.36 59.9732 45.4035C60.8746 44.9392 61.7169 44.573 62.3342 44.3229L62.4356 44.282L62.8834 45.4014C58.2164 47.6718 55 52.4593 55 57.998C55 65.73 61.268 71.998 69 71.998C76.732 71.998 83 65.73 83 57.998C83 50.2661 76.732 43.998 69 43.998C67.5146 43.998 66.0833 44.2294 64.74 44.658L63.9283 42.6286L61.9283 37.6286L59.5667 31.7246C60.1484 31.7414 60.8464 31.6855 61.4358 31.3999ZM45.3198 57.367C44.5213 57.7371 43.8655 58.3628 43.4573 59.1391L40.9652 58.9925C40.9883 58.664 41 58.3324 41 57.998C41 55.1699 40.1614 52.5376 38.7193 50.3362L41.267 48.2133L44.1409 54.5386L45.3198 57.367ZM49.1795 57.6434C48.6758 57.3155 48.0937 57.098 47.4675 57.0251L46.5452 54.9952C47.1878 54.8203 47.9131 54.441 48.6781 53.7348C50.231 52.3014 50.698 50.3404 51.0921 48.6852L51.0924 48.684C51.1266 48.5405 51.1602 48.3992 51.194 48.2608C51.64 46.4318 52.1188 44.9108 53.5998 43.8C54.5533 43.0849 56.5091 41.8607 58.2688 40.7923C59.1219 40.2743 59.9157 39.8009 60.5038 39.4526L61.6928 42.4251L61.5833 42.4692C60.9258 42.7356 60.0259 43.1266 59.0574 43.6255C57.1746 44.5953 54.8264 46.0743 53.6498 47.9733C52.6616 49.5683 52.4687 51.1231 52.3097 52.4044L52.3097 52.4049L52.3096 52.4058L52.3093 52.4078L52.3089 52.4112C52.2917 52.5495 52.275 52.6846 52.2576 52.8162C52.0784 54.1755 51.8445 55.2443 50.7945 56.2892C50.3487 56.7328 49.7646 57.2068 49.1795 57.6434ZM47.7071 60.2909L48.9323 61.5161C48.9764 61.3509 49 61.1772 49 60.998C49 60.4961 48.8151 60.0374 48.5098 59.6863C48.1366 59.3104 47.6158 59.0826 47.0445 59.0957C45.9402 59.121 45.0655 60.0366 45.0908 61.1409C45.1019 61.6261 45.2849 62.067 45.5802 62.4067C45.9426 62.7719 46.4449 62.998 47 62.998C47.1792 62.998 47.3528 62.9745 47.518 62.9303L46.2929 61.7052C45.9024 61.3146 45.9024 60.6815 46.2929 60.2909C46.6834 59.9004 47.3166 59.9004 47.7071 60.2909ZM64.3747 49.1297L68.0714 58.3714C68.2765 58.8842 68.8584 59.1336 69.3712 58.9285C69.884 58.7234 70.1334 58.1414 69.9283 57.6286L66.2314 48.3863C67.1106 48.1335 68.0395 47.998 69 47.998C74.5229 47.998 79 52.4752 79 57.998C79 63.5209 74.5229 67.998 69 67.998C63.4772 67.998 59 63.5209 59 57.998C59 54.144 61.1803 50.7992 64.3747 49.1297ZM34.431 51.3062C32.6007 49.275 29.9495 47.998 27 47.998C21.4772 47.998 17 52.4752 17 57.998C17 63.5209 21.4772 67.998 27 67.998C31.5719 67.998 35.4272 64.9299 36.6193 60.7403L26.5234 60.1464C25.6186 60.0931 25.2456 58.9601 25.942 58.3799L34.431 51.3062ZM36.9716 58.7576L29.1641 58.2983L35.6172 52.9211C36.4958 54.4092 37 56.1448 37 57.998C37 58.2536 36.9904 58.5069 36.9716 58.7576Z" fill="#FF0000"/>
</svg>
