<svg width="96" height="96" viewBox="0 0 96 96" fill="none" xmlns="http://www.w3.org/2000/svg">
<path fill-rule="evenodd" clip-rule="evenodd" d="M61.4358 30.3999C63.206 29.5423 63.6743 27.5211 62.8542 25.8701C62.0241 24.1991 60.0025 22.9989 56.9995 23C56.4472 23.0002 55.9996 23.4481 55.9998 24.0004C56 24.5526 56.4479 25.0002 57.0002 25C59.4972 24.9991 60.6706 25.97 61.063 26.7599C61.4654 27.57 61.1838 28.2997 60.5638 28.6001C60.308 28.724 59.8058 28.7587 59.2072 28.6968C58.9374 28.669 58.6936 28.6268 58.517 28.5914C58.4294 28.5738 58.3599 28.5582 58.314 28.5474C58.2911 28.542 58.2741 28.5379 58.2638 28.5353L58.2538 28.5328L58.2535 28.5327L58.2534 28.5327L58.2533 28.5327L58.2525 28.5324C57.8876 28.4372 57.5001 28.5553 57.2503 28.838C57.0003 29.121 56.9311 29.5208 57.0714 29.8714L59.7522 36.5735L59.5216 36.7098C58.9257 37.0627 58.1099 37.549 57.2309 38.0827C55.4906 39.1393 53.4463 40.4151 52.3998 41.2C50.3031 42.7725 49.7009 44.9416 49.2509 46.7869C49.225 46.893 49.1996 46.9978 49.1746 47.1012C48.7418 48.8871 48.4087 50.2617 47.3216 51.2652C46.5797 51.9499 46.0315 52.09 45.7508 52.1146C45.7305 52.1164 45.711 52.1176 45.6924 52.1184L42.5451 45.1916C42.5339 45.1669 42.5219 45.143 42.5091 45.1198L40.8132 41.0498L42.3714 40.4265C42.8842 40.2214 43.1336 39.6394 42.9285 39.1267C42.7234 38.6139 42.1414 38.3645 41.6286 38.5696L39.1559 39.5587L36.5767 40.4184L34.9472 39.6036C34.4532 39.3566 33.8526 39.5569 33.6056 40.0508C33.3586 40.5448 33.5588 41.1455 34.0528 41.3925L36.0528 42.3925C36.29 42.5111 36.5646 42.5306 36.8162 42.4467L38.9344 41.7407L40.423 45.3133L37.5057 47.7441C34.9403 44.8339 31.1845 42.998 27 42.998C19.268 42.998 13 49.2661 13 56.998C13 64.73 19.268 70.998 27 70.998C33.7089 70.998 39.3156 66.2791 40.6819 59.9793L43.0017 60.1158C43.064 62.2705 44.8302 63.998 47 63.998C47.7418 63.998 48.4365 63.7961 49.032 63.4442L49.2929 63.7052C49.4804 63.8927 49.7348 63.998 50 63.998H52C52.5523 63.998 53 63.5503 53 62.998C53 62.4458 52.5523 61.998 52 61.998H50.4649C50.8052 61.4097 51 60.7266 51 59.998C51 59.3217 50.8321 58.6845 50.5358 58.126C51.1196 57.6835 51.7179 57.1918 52.2052 56.7069C53.7409 55.1787 54.0464 53.549 54.2404 52.0777C54.2587 51.9395 54.276 51.8034 54.293 51.669L54.2931 51.6684L54.2933 51.6674C54.4587 50.3655 54.6028 49.2326 55.3499 48.0267C56.2146 46.631 58.1164 45.36 59.9732 44.4035C60.8746 43.9392 61.7169 43.573 62.3342 43.3229L62.4356 43.282L62.8834 44.4014C58.2164 46.6718 55 51.4593 55 56.998C55 64.73 61.268 70.998 69 70.998C76.732 70.998 83 64.73 83 56.998C83 49.2661 76.732 42.998 69 42.998C67.5146 42.998 66.0833 43.2294 64.74 43.658L63.9283 41.6286L61.9283 36.6286L59.5667 30.7246C60.1484 30.7414 60.8464 30.6855 61.4358 30.3999ZM43.6175 57.8619C43.5606 57.952 43.5071 58.0444 43.4573 58.1391L40.9652 57.9925C40.9722 57.8931 40.9781 57.7934 40.983 57.6935L43.6175 57.8619ZM45.1485 55.9561L44.1409 53.5386L41.267 47.2133L38.7193 49.3362C39.9359 51.1934 40.7231 53.3574 40.9394 55.6869L45.1485 55.9561ZM38.9144 55.5574C38.6996 53.762 38.0883 52.0884 37.1707 50.6266L29.1641 57.2983L33.0909 57.5293L33.1518 56.1908C33.177 55.6391 33.6441 55.2204 34.1953 55.2556L38.9144 55.5574ZM35.0873 57.6467L38.9684 57.875C38.9759 57.7723 38.982 57.6692 38.9868 57.5658L35.1023 57.3174L35.0873 57.6467ZM49.1795 56.6434C48.6758 56.3155 48.0937 56.098 47.4675 56.0251L46.5452 53.9952C47.1878 53.8203 47.9131 53.441 48.6781 52.7348C50.231 51.3014 50.698 49.3404 51.0921 47.6852L51.0924 47.684C51.1266 47.5405 51.1602 47.3992 51.194 47.2608C51.64 45.4318 52.1188 43.9108 53.5998 42.8C54.5533 42.0849 56.5091 40.8607 58.2688 39.7923C59.1219 39.2743 59.9157 38.8009 60.5038 38.4526L61.6928 41.4251L61.5833 41.4692C60.9258 41.7356 60.0259 42.1266 59.0574 42.6255C57.1746 43.5953 54.8264 45.0743 53.6498 46.9733C52.6616 48.5683 52.4687 50.1231 52.3097 51.4044L52.3097 51.4049L52.3096 51.4058L52.3093 51.4078L52.3089 51.4112C52.2917 51.5495 52.275 51.6846 52.2576 51.8162C52.0784 53.1755 51.8445 54.2443 50.7945 55.2892C50.3487 55.7328 49.7646 56.2068 49.1795 56.6434ZM47.7071 59.2909L48.9323 60.5161C48.9764 60.3509 49 60.1772 49 59.998C49 58.8935 48.1046 57.998 47 57.998C45.8954 57.998 45 58.8935 45 59.998C45 61.1026 45.8954 61.998 47 61.998C47.1792 61.998 47.3528 61.9745 47.518 61.9303L46.2929 60.7052C45.9024 60.3146 45.9024 59.6815 46.2929 59.2909C46.6834 58.9004 47.3166 58.9004 47.7071 59.2909ZM63.6286 46.2644L68.0714 57.3714C68.2765 57.8842 68.8584 58.1336 69.3712 57.9285C69.884 57.7234 70.1334 57.1414 69.9283 56.6286L65.4853 45.521C66.5969 45.181 67.7771 44.998 69 44.998C75.6274 44.998 81 50.3706 81 56.998C81 63.6255 75.6274 68.998 69 68.998C62.3726 68.998 57 63.6255 57 56.998C57 52.3016 59.698 48.2353 63.6286 46.2644ZM35.9685 49.025C33.7705 46.5544 30.567 44.998 27 44.998C20.3726 44.998 15 50.3706 15 56.998C15 63.6255 20.3726 68.998 27 68.998C32.6411 68.998 37.373 65.1057 38.6566 59.8602L26.5234 59.1464C25.6186 59.0931 25.2456 57.9601 25.942 57.3799L35.9685 49.025Z" fill="black"/>
<rect width="3.63154" height="1.73216" transform="translate(29.4841 41.999) rotate(16.2284)" fill="black"/>
<rect width="3.63154" height="1.73216" transform="translate(71.4841 41.999) rotate(16.2284)" fill="black"/>
<rect width="3.63154" height="1.73216" transform="translate(38.3576 46.999) rotate(51.6059)" fill="black"/>
<rect width="3.63154" height="1.73216" transform="translate(80.3576 46.999) rotate(51.6059)" fill="black"/>
<rect width="3.63154" height="1.73216" transform="translate(42.2455 58.2528) rotate(98.4242)" fill="black"/>
<rect width="3.63154" height="1.73216" transform="translate(84.2455 58.2528) rotate(98.4242)" fill="black"/>
<rect width="3.63154" height="1.73216" transform="translate(38.8456 67.274) rotate(137.397)" fill="black"/>
<rect width="3.63154" height="1.73216" transform="translate(80.8456 67.274) rotate(137.397)" fill="black"/>
<rect width="3.63154" height="1.73216" transform="translate(25.558 72.4232) rotate(-168.449)" fill="black"/>
<rect width="3.63154" height="1.73216" transform="translate(67.558 72.4232) rotate(-168.449)" fill="black"/>
<rect width="3.63154" height="1.73216" transform="translate(14.7313 66.0171) rotate(-118.474)" fill="black"/>
<rect width="3.63154" height="1.73216" transform="translate(56.7313 66.0171) rotate(-118.474)" fill="black"/>
<rect width="3.63154" height="1.73216" transform="translate(12 53.4039) rotate(-69.649)" fill="black"/>
<rect width="3.63154" height="1.73216" transform="translate(54 54.4039) rotate(-69.649)" fill="black"/>
<rect width="3.63154" height="1.73216" transform="translate(18 44.793) rotate(-29.6045)" fill="black"/>
<rect width="3.63154" height="1.73216" transform="translate(60 44.793) rotate(-29.6045)" fill="black"/>
</svg>
