<svg width="96" height="96" viewBox="0 0 96 96" fill="none" xmlns="http://www.w3.org/2000/svg">
<path fill-rule="evenodd" clip-rule="evenodd" d="M62.8542 25.8701C63.6743 27.5211 63.206 29.5423 61.4358 30.3999C60.8464 30.6855 60.1484 30.7414 59.5667 30.7246L61.9283 36.6286L63.9283 41.6286L64.74 43.658C66.0833 43.2294 67.5146 42.998 69 42.998C76.732 42.998 83 49.2661 83 56.998C83 64.73 76.732 70.998 69 70.998C61.268 70.998 55 64.73 55 56.998C55 51.4593 58.2164 46.6718 62.8834 44.4014L62.4356 43.282L62.3342 43.3229C61.7169 43.573 60.8746 43.9392 59.9732 44.4035C58.1164 45.36 56.2146 46.631 55.3499 48.0267C54.6028 49.2326 54.4587 50.3655 54.2933 51.6674L54.2931 51.6684L54.293 51.669C54.276 51.8034 54.2587 51.9395 54.2404 52.0777C54.0464 53.549 53.7409 55.1787 52.2052 56.7069C51.7179 57.1918 51.1196 57.6835 50.5358 58.126C50.8321 58.6845 51 59.3217 51 59.998C51 60.7266 50.8052 61.4097 50.4649 61.998H52C52.5523 61.998 53 62.4458 53 62.998C53 63.5503 52.5523 63.998 52 63.998H50C49.7348 63.998 49.4804 63.8927 49.2929 63.7052L49.032 63.4442C48.4365 63.7961 47.7418 63.998 47 63.998C44.8302 63.998 43.064 62.2705 43.0017 60.1158L40.6819 59.9793C39.3156 66.2791 33.7089 70.998 27 70.998C19.268 70.998 13 64.73 13 56.998C13 49.2661 19.268 42.998 27 42.998C31.1845 42.998 34.9403 44.8339 37.5057 47.7441L40.423 45.3133L38.9344 41.7407L36.8162 42.4467C36.5646 42.5306 36.29 42.5111 36.0528 42.3925L34.0528 41.3925C33.5588 41.1455 33.3586 40.5448 33.6056 40.0508C33.8526 39.5569 34.4532 39.3566 34.9472 39.6036L36.5767 40.4184L39.1559 39.5587L41.6286 38.5696C42.1414 38.3645 42.7234 38.6139 42.9285 39.1267C43.1336 39.6394 42.8842 40.2214 42.3714 40.4265L40.8132 41.0498L42.5091 45.1198C42.5219 45.143 42.5339 45.1669 42.5451 45.1916L45.6924 52.1184C45.711 52.1176 45.7305 52.1164 45.7508 52.1146C46.0315 52.09 46.5797 51.9499 47.3216 51.2652C48.4087 50.2617 48.7418 48.8871 49.1746 47.1012C49.1996 46.9978 49.225 46.893 49.2509 46.7869C49.7009 44.9416 50.3031 42.7725 52.3998 41.2C53.4463 40.4151 55.4906 39.1393 57.2309 38.0827C58.1099 37.549 58.9257 37.0627 59.5216 36.7098L59.7522 36.5735L57.0714 29.8714C56.9311 29.5208 57.0003 29.121 57.2503 28.838C57.5001 28.5553 57.8876 28.4372 58.2525 28.5324L58.2533 28.5327L58.2534 28.5327L58.2535 28.5327L58.2538 28.5328L58.2638 28.5353C58.2741 28.5379 58.2911 28.542 58.314 28.5474C58.3599 28.5582 58.4294 28.5738 58.517 28.5914C58.6936 28.6268 58.9374 28.669 59.2072 28.6968C59.8058 28.7587 60.308 28.724 60.5638 28.6001C61.1838 28.2997 61.4654 27.57 61.063 26.7599C60.6706 25.97 59.4972 24.9991 57.0002 25C56.4479 25.0002 56 24.5526 55.9998 24.0004C55.9996 23.4481 56.4472 23.0002 56.9995 23C60.0025 22.9989 62.0241 24.1991 62.8542 25.8701ZM43.4573 58.1391C43.8655 57.3628 44.5213 56.7371 45.3198 56.367L44.1409 53.5386L41.267 47.2133L38.7193 49.3362C40.1614 51.5376 41 54.1699 41 56.998C41 57.3324 40.9883 57.664 40.9652 57.9925L43.4573 58.1391ZM47.4675 56.0251C48.0937 56.098 48.6758 56.3155 49.1795 56.6434C49.7646 56.2068 50.3487 55.7328 50.7945 55.2892C51.8445 54.2443 52.0784 53.1755 52.2576 51.8162C52.2751 51.6835 52.292 51.5473 52.3093 51.4078L52.3096 51.4058L52.3097 51.4049L52.3097 51.4044C52.4687 50.1231 52.6616 48.5683 53.6498 46.9733C54.8264 45.0743 57.1746 43.5953 59.0574 42.6255C60.0259 42.1266 60.9258 41.7356 61.5833 41.4692L61.6928 41.4251L60.5038 38.4526C59.9157 38.8009 59.1219 39.2743 58.2688 39.7923C56.5091 40.8607 54.5533 42.0849 53.5998 42.8C52.1188 43.9108 51.64 45.4318 51.194 47.2608C51.1602 47.3992 51.1266 47.5405 51.0924 47.684L51.0921 47.6852C50.698 49.3404 50.231 51.3014 48.6781 52.7348C47.9131 53.441 47.1878 53.8203 46.5452 53.9952L47.4675 56.0251ZM48.9323 60.5161L47.7071 59.2909C47.3166 58.9004 46.6834 58.9004 46.2929 59.2909C45.9024 59.6815 45.9024 60.3146 46.2929 60.7052L47.518 61.9303C47.3528 61.9745 47.1792 61.998 47 61.998C45.8954 61.998 45 61.1026 45 59.998C45 58.8935 45.8954 57.998 47 57.998C48.1046 57.998 49 58.8935 49 59.998C49 60.1772 48.9764 60.3509 48.9323 60.5161ZM68.0714 57.3714L63.6286 46.2644C59.698 48.2353 57 52.3016 57 56.998C57 63.6255 62.3726 68.998 69 68.998C75.6274 68.998 81 63.6255 81 56.998C81 50.3706 75.6274 44.998 69 44.998C67.7771 44.998 66.5969 45.181 65.4853 45.521L69.9283 56.6286C70.1334 57.1414 69.884 57.7234 69.3712 57.9285C68.8584 58.1336 68.2765 57.8842 68.0714 57.3714ZM27 44.998C30.567 44.998 33.7705 46.5544 35.9685 49.025L25.942 57.3799C25.2456 57.9601 25.6186 59.0931 26.5234 59.1464L38.6566 59.8602C37.373 65.1057 32.6411 68.998 27 68.998C20.3726 68.998 15 63.6255 15 56.998C15 50.3706 20.3726 44.998 27 44.998ZM29.1641 57.2983L38.9684 57.875C38.9894 57.5854 39 57.293 39 56.998C39 54.6572 38.3298 52.4729 37.1707 50.6266L29.1641 57.2983Z" fill="black"/>
<rect width="3.63154" height="1.73216" transform="translate(29.4841 41.999) rotate(16.2284)" fill="black"/>
<rect width="3.63154" height="1.73216" transform="translate(71.4841 41.999) rotate(16.2284)" fill="black"/>
<rect width="3.63154" height="1.73216" transform="translate(38.3576 46.999) rotate(51.6059)" fill="black"/>
<rect width="3.63154" height="1.73216" transform="translate(80.3576 46.999) rotate(51.6059)" fill="black"/>
<rect width="3.63154" height="1.73216" transform="translate(42.2455 58.2528) rotate(98.4242)" fill="black"/>
<rect width="3.63154" height="1.73216" transform="translate(84.2455 58.2528) rotate(98.4242)" fill="black"/>
<rect width="3.63154" height="1.73216" transform="translate(38.8456 67.274) rotate(137.397)" fill="black"/>
<rect width="3.63154" height="1.73216" transform="translate(80.8456 67.274) rotate(137.397)" fill="black"/>
<rect width="3.63154" height="1.73216" transform="translate(25.558 72.4232) rotate(-168.449)" fill="black"/>
<rect width="3.63154" height="1.73216" transform="translate(67.558 72.4232) rotate(-168.449)" fill="black"/>
<rect width="3.63154" height="1.73216" transform="translate(14.7313 66.0171) rotate(-118.474)" fill="black"/>
<rect width="3.63154" height="1.73216" transform="translate(56.7313 66.0171) rotate(-118.474)" fill="black"/>
<rect width="3.63154" height="1.73216" transform="translate(12 53.4039) rotate(-69.649)" fill="black"/>
<rect width="3.63154" height="1.73216" transform="translate(54 54.4039) rotate(-69.649)" fill="black"/>
<rect width="3.63154" height="1.73216" transform="translate(18 44.793) rotate(-29.6045)" fill="black"/>
<rect width="3.63154" height="1.73216" transform="translate(60 44.793) rotate(-29.6045)" fill="black"/>
</svg>
