<svg width="96" height="96" viewBox="0 0 96 96" fill="none" xmlns="http://www.w3.org/2000/svg">
<path fill-rule="evenodd" clip-rule="evenodd" d="M61.4358 31.3999C63.206 30.5423 63.6743 28.5211 62.8542 26.8701C62.0241 25.1991 60.0025 23.9989 56.9995 24C56.4472 24.0002 55.9996 24.4481 55.9998 25.0004C56 25.5526 56.4479 26.0002 57.0002 26C59.4972 25.9991 60.6706 26.97 61.063 27.7599C61.4654 28.57 61.1838 29.2997 60.5638 29.6001C60.308 29.724 59.8058 29.7587 59.2072 29.6968C58.9374 29.669 58.6936 29.6268 58.517 29.5914C58.4294 29.5738 58.3599 29.5582 58.314 29.5474C58.2911 29.542 58.2741 29.5379 58.2638 29.5353L58.2538 29.5328L58.2535 29.5327L58.2534 29.5327L58.2533 29.5327L58.2525 29.5324C57.8876 29.4372 57.5001 29.5553 57.2503 29.838C57.0003 30.121 56.9311 30.5208 57.0714 30.8714L59.7522 37.5735L59.5216 37.7098C58.9257 38.0627 58.1099 38.549 57.2309 39.0827C55.4906 40.1393 53.4463 41.4151 52.3998 42.2C50.3031 43.7725 49.7009 45.9416 49.2509 47.7869C49.225 47.893 49.1996 47.9978 49.1746 48.1012C48.7418 49.8871 48.4087 51.2617 47.3216 52.2652C46.5797 52.9499 46.0315 53.09 45.7508 53.1146C45.7305 53.1164 45.711 53.1176 45.6924 53.1184L42.5451 46.1916C42.5339 46.1669 42.5219 46.143 42.5091 46.1198L40.8132 42.0498L42.3714 41.4265C42.8842 41.2214 43.1336 40.6394 42.9285 40.1267C42.7234 39.6139 42.1414 39.3645 41.6286 39.5696L39.1559 40.5587L36.5767 41.4184L34.9472 40.6036C34.4532 40.3566 33.8526 40.5569 33.6056 41.0508C33.3586 41.5448 33.5588 42.1455 34.0528 42.3925L36.0528 43.3925C36.29 43.5111 36.5646 43.5306 36.8162 43.4467L38.9344 42.7407L40.423 46.3133L37.5057 48.7441C34.9403 45.8339 31.1845 43.998 27 43.998C19.268 43.998 13 50.2661 13 57.998C13 65.73 19.268 71.998 27 71.998C33.7089 71.998 39.3156 67.2791 40.6819 60.9793L43.0017 61.1158C43.064 63.2705 44.8302 64.998 47 64.998C47.7418 64.998 48.4365 64.7961 49.032 64.4442L49.2929 64.7052C49.4804 64.8927 49.7348 64.998 50 64.998H52C52.5523 64.998 53 64.5503 53 63.998C53 63.4458 52.5523 62.998 52 62.998H50.4649C50.8052 62.4097 51 61.7266 51 60.998C51 60.3217 50.8321 59.6845 50.5358 59.126C51.1196 58.6835 51.7179 58.1918 52.2052 57.7069C53.7409 56.1787 54.0464 54.549 54.2404 53.0777C54.2587 52.9395 54.276 52.8034 54.293 52.669L54.2931 52.6684L54.2933 52.6674C54.4587 51.3655 54.6028 50.2326 55.3499 49.0267C56.2146 47.631 58.1164 46.36 59.9732 45.4035C60.8746 44.9392 61.7169 44.573 62.3342 44.3229L62.4356 44.282L62.8834 45.4014C58.2164 47.6718 55 52.4593 55 57.998C55 65.73 61.268 71.998 69 71.998C76.732 71.998 83 65.73 83 57.998C83 50.2661 76.732 43.998 69 43.998C67.5146 43.998 66.0833 44.2294 64.74 44.658L63.9283 42.6286L61.9283 37.6286L59.5667 31.7246C60.1484 31.7414 60.8464 31.6855 61.4358 31.3999ZM43.6175 58.8619C43.5606 58.952 43.5071 59.0444 43.4573 59.1391L40.9652 58.9925C40.9722 58.8931 40.9781 58.7934 40.983 58.6935L43.6175 58.8619ZM45.1485 56.9561L44.1409 54.5386L41.267 48.2133L38.7193 50.3362C39.9359 52.1934 40.7231 54.3574 40.9394 56.6869L45.1485 56.9561ZM38.9144 56.5574C38.6996 54.762 38.0883 53.0884 37.1707 51.6266L29.1641 58.2983L33.0909 58.5293L33.1518 57.1908C33.177 56.6391 33.6441 56.2204 34.1953 56.2556L38.9144 56.5574ZM35.0873 58.6467L38.9684 58.875C38.9759 58.7723 38.982 58.6692 38.9868 58.5658L35.1023 58.3174L35.0873 58.6467ZM49.1795 57.6434C48.6758 57.3155 48.0937 57.098 47.4675 57.0251L46.5452 54.9952C47.1878 54.8203 47.9131 54.441 48.6781 53.7348C50.231 52.3014 50.698 50.3404 51.0921 48.6852L51.0924 48.684C51.1266 48.5405 51.1602 48.3992 51.194 48.2608C51.64 46.4318 52.1188 44.9108 53.5998 43.8C54.5533 43.0849 56.5091 41.8607 58.2688 40.7923C59.1219 40.2743 59.9157 39.8009 60.5038 39.4526L61.6928 42.4251L61.5833 42.4692C60.9258 42.7356 60.0259 43.1266 59.0574 43.6255C57.1746 44.5953 54.8264 46.0743 53.6498 47.9733C52.6616 49.5683 52.4687 51.1231 52.3097 52.4044L52.3097 52.4049L52.3096 52.4058L52.3093 52.4078L52.3089 52.4112C52.2917 52.5495 52.275 52.6846 52.2576 52.8162C52.0784 54.1755 51.8445 55.2443 50.7945 56.2892C50.3487 56.7328 49.7646 57.2068 49.1795 57.6434ZM47.7071 60.2909L48.9323 61.5161C48.9764 61.3509 49 61.1772 49 60.998C49 59.8935 48.1046 58.998 47 58.998C45.8954 58.998 45 59.8935 45 60.998C45 62.1026 45.8954 62.998 47 62.998C47.1792 62.998 47.3528 62.9745 47.518 62.9303L46.2929 61.7052C45.9024 61.3146 45.9024 60.6815 46.2929 60.2909C46.6834 59.9004 47.3166 59.9004 47.7071 60.2909ZM63.6286 47.2644L68.0714 58.3714C68.2765 58.8842 68.8584 59.1336 69.3712 58.9285C69.884 58.7234 70.1334 58.1414 69.9283 57.6286L65.4853 46.521C66.5969 46.181 67.7771 45.998 69 45.998C75.6274 45.998 81 51.3706 81 57.998C81 64.6255 75.6274 69.998 69 69.998C62.3726 69.998 57 64.6255 57 57.998C57 53.3016 59.698 49.2353 63.6286 47.2644ZM35.9685 50.025C33.7705 47.5544 30.567 45.998 27 45.998C20.3726 45.998 15 51.3706 15 57.998C15 64.6255 20.3726 69.998 27 69.998C32.6411 69.998 37.373 66.1057 38.6566 60.8602L26.5234 60.1464C25.6186 60.0931 25.2456 58.9601 25.942 58.3799L35.9685 50.025Z" fill="#84CC16"/>
<rect x="52" y="43.2443" width="9.85029" height="0.528442" rx="0.264221" transform="rotate(-32.1743 52 43.2443)" fill="white" style="mix-blend-mode:lighten"/>
</svg>
