<?xml version="1.0" encoding="utf-8"?><!-- Uploaded to: SVG Repo, www.svgrepo.com, Generator: SVG Repo Mixer Tools -->
<svg fill="#000000" width="800px" height="800px" viewBox="0 0 24 24" id="bike" data-name="Flat Color" xmlns="http://www.w3.org/2000/svg" class="icon flat-color"><path id="secondary" d="M18,20a4,4,0,1,1,4-4A4,4,0,0,1,18,20Zm0-6a2,2,0,1,0,2,2A2,2,0,0,0,18,14ZM6,20a4,4,0,1,1,4-4A4,4,0,0,1,6,20Zm0-6a2,2,0,1,0,2,2A2,2,0,0,0,6,14Z" style="fill: rgb(44, 169, 188);"></path><path id="primary" d="M18.45,5.89a1,1,0,1,0-.9-1.78l-1.32.65A2,2,0,0,0,15.17,7l.34,1.72L12,10.94l-.47-2.33A2,2,0,0,0,9.58,7H8A1,1,0,0,0,8,9H9.58l.62,3.1L5.46,15.16A1,1,0,0,0,6,17a1,1,0,0,0,.54-.16l9.4-6.06L17,16.2a1,1,0,0,0,1,.8l.2,0A1,1,0,0,0,19,15.8L17.13,6.55Z" style="fill: rgb(0, 0, 0);"></path></svg>