<?xml version="1.0" encoding="iso-8859-1"?>
<!-- Uploaded to: SVG Repo, www.svgrepo.com, Generator: SVG Repo Mixer Tools -->
<svg fill="#000000" height="800px" width="800px" version="1.1" id="Layer_1" xmlns="http://www.w3.org/2000/svg" xmlns:xlink="http://www.w3.org/1999/xlink" 
	 viewBox="0 0 512.244 512.244" xml:space="preserve">
<g transform="translate(1 1)">
	<g>
		<g>
			<path d="M67.388,451.51h-8.533v-68.267c5.12,0,8.533-3.413,8.533-8.533s-3.413-8.533-8.533-8.533V297.91
				c5.12,0,8.533-3.413,8.533-8.533s-3.413-8.533-8.533-8.533V195.51h8.533c5.12,0,8.533-3.413,8.533-8.533V24.844
				c0-14.507-11.093-25.6-25.6-25.6c-14.507,0-25.6,11.093-25.6,25.6v162.133c0,5.12,3.413,8.533,8.533,8.533h8.533v85.333
				c-5.12,0-8.533,3.413-8.533,8.533s3.413,8.533,8.533,8.533v68.267c-5.12,0-8.533,3.413-8.533,8.533s3.413,8.533,8.533,8.533
				v68.267h-8.533c-9.387,0-17.067,7.68-17.067,17.067v8.533c0,9.387,7.68,17.067,17.067,17.067h8.533v8.533
				c0,5.12,3.413,8.533,8.533,8.533c5.12,0,8.533-3.413,8.533-8.533v-8.533h8.533c9.387,0,17.067-7.68,17.067-17.067v-8.533
				C84.455,459.19,76.775,451.51,67.388,451.51z M41.788,178.444V164.79l17.067-17.067v30.72H41.788z M41.788,122.124l17.067-17.067
				v18.773l-17.067,17.067V122.124z M50.322,16.31c5.12,0,8.533,3.413,8.533,8.533v56.32L41.788,98.23V24.844
				C41.788,19.724,45.202,16.31,50.322,16.31z M67.388,477.11H33.255v-8.533h34.133V477.11z"/>
			<path d="M476.988,451.51h-8.533v-68.267c5.12,0,8.533-3.413,8.533-8.533s-3.413-8.533-8.533-8.533V297.91
				c5.12,0,8.533-3.413,8.533-8.533s-3.413-8.533-8.533-8.533V195.51h8.533c5.12,0,8.533-3.413,8.533-8.533V24.844
				c0-14.507-11.093-25.6-25.6-25.6c-14.507,0-25.6,11.093-25.6,25.6v162.133c0,5.12,3.413,8.533,8.533,8.533h8.533v85.333
				c-5.12,0-8.533,3.413-8.533,8.533s3.413,8.533,8.533,8.533v68.267c-5.12,0-8.533,3.413-8.533,8.533s3.413,8.533,8.533,8.533
				v68.267h-8.533c-9.387,0-17.067,7.68-17.067,17.067v8.533c0,9.387,7.68,17.067,17.067,17.067h8.533v8.533
				c0,5.12,3.413,8.533,8.533,8.533s8.533-3.413,8.533-8.533v-8.533h8.533c9.387,0,17.067-7.68,17.067-17.067v-8.533
				C494.055,459.19,486.375,451.51,476.988,451.51z M451.388,178.444V164.79l17.067-17.067v30.72H451.388z M451.388,122.124
				l17.067-17.067v18.773l-17.067,17.067V122.124z M459.922,16.31c5.12,0,8.533,3.413,8.533,8.533v56.32L451.388,98.23V24.844
				C451.388,19.724,454.802,16.31,459.922,16.31z M476.988,477.11h-34.133v-8.533h34.133V477.11z"/>
			<path d="M279.015,407.137l27.307,63.147c4.267,9.387,13.653,15.36,23.893,15.36c3.413,0,6.827-0.853,9.387-2.56
				c4.267-1.707,5.973-6.827,4.267-11.093s-6.827-5.973-11.093-4.267s-9.387,0-11.093-4.267l-27.307-63.147
				c-1.707-4.267-6.827-5.973-11.093-4.267C279.015,397.75,277.308,402.87,279.015,407.137z"/>
			<path d="M376.295,3.51c-18.188-8.214-37.99-4.729-52.193,6.57c-0.603,0.307-1.138,0.681-1.567,1.109
				c-5.973,5.12-11.093,11.093-13.653,17.92L299.1,51.935c-0.498,0.57-0.95,1.199-1.311,1.922L279.015,98.23
				c-0.182,0.546-0.317,1.091-0.421,1.629l-24.25,55.962l-43.011-98.984c-0.087-0.791-0.278-1.516-0.584-2.127l-10.24-23.893
				c-0.866-1.732-1.789-3.408-2.778-5.03c-5.537-10.672-14.873-18.585-26.235-23.13c-12.8-5.12-26.453-4.267-39.253,0.853
				s-22.187,15.36-27.307,28.16c-5.12,12.8-4.267,26.453,0.853,39.253l24.189,56.073c0.095,0.722,0.275,1.388,0.558,1.953
				l18.773,43.52c0.26,1.042,0.761,1.922,1.426,2.646l47.516,110.151l-66.862,154.297c-11.947,26.453,0.853,56.32,26.453,67.413
				c6.827,2.56,13.653,4.267,20.48,4.267s12.8-0.853,18.773-3.413c12.8-5.12,23.04-14.507,28.16-27.307l29.125-67.212l28.901,67.212
				c8.533,18.773,27.307,30.72,46.933,30.72c6.827,0,13.653-1.707,19.627-4.267c12.8-5.12,22.187-15.36,27.307-28.16
				c5.12-12.8,4.267-26.453-0.853-39.253l-66.396-154.372l92.85-214.269c5.973-12.8,5.973-26.453,0.853-39.253
				C398.482,18.87,389.095,8.63,376.295,3.51z M207.335,263.777l-22.134-51.281l36.2-89.475l23.481,54.569L207.335,263.777z
				 M183.442,36.79c0,0.853,0.853,0.853,0.853,1.707l8.533,20.48l-35.717,88.441l-9.478-21.96L183.442,36.79z M166.514,169.202
				l36.295-88.341l8.793,20.783l-35.712,89.28L166.514,169.202z M139.068,18.87c4.267-1.707,9.387-2.56,13.653-2.56
				s8.533,0.853,12.8,2.56c1.945,0.778,3.796,1.696,5.543,2.74l-32.967,81.757l-16.95-39.27
				C113.468,46.177,122.002,26.55,139.068,18.87z M303.223,85.295l2.383-5.499l35.703,88.407l-9.387,22.187l-34.987-88.747
				L303.223,85.295z M350.695,144.31l-34.973-87.859l8.52-19.661c0.33-0.706,0.685-1.391,1.05-2.066l34.79,87.399L350.695,144.31z
				 M209.895,472.844c-3.413,7.68-10.24,14.507-18.773,17.92c-8.533,3.413-17.92,3.413-26.453,0
				c-17.067-6.827-25.6-27.307-17.92-44.373l67.99-156.899c0.429-0.569,0.81-1.18,1.13-1.821l30.719-71.678l39.937-92.162
				l35.813,89.532l-28.334,65.385c-0.49,0.61-0.938,1.302-1.335,2.096l-38.397,89.594L209.895,472.844z M361.788,445.537
				c7.68,17.92-0.853,37.547-17.92,45.227c-17.92,7.68-37.547-0.853-45.227-17.92l-34.958-81.001l36.837-85.009L361.788,445.537z
				 M387.388,63.244l-16.58,38.262L338.673,20.84c5.098-2.93,10.94-4.53,17.142-4.53c4.267,0,8.533,0.853,13.653,2.56
				C386.535,25.697,395.068,46.177,387.388,63.244z"/>
			<path d="M261.095,334.604l23.893-54.613c2.56-5.973,2.56-13.653,0-19.627c-2.56-5.973-7.68-11.093-13.653-13.653
				s-13.653-2.56-19.627,0s-11.093,7.68-13.653,13.653l-23.893,54.613c-3.413,8.533,0.853,18.773,9.387,22.187l15.36,6.827
				c2.56,0.853,4.267,1.707,6.827,1.707s4.267-0.853,5.973-1.707C255.975,342.284,259.388,338.87,261.095,334.604z M230.375,320.95
				l23.893-54.613c0.853-3.413,4.267-5.12,7.68-5.12c0.853,0,1.707,0.853,3.413,0.853c1.707,0.853,3.413,2.56,4.267,4.267
				c0.853,2.56,0.853,5.12,0,6.827l-23.893,54.613L230.375,320.95z"/>
			<path d="M224.402,396.897c-4.267-1.707-9.387,0-11.093,4.267l-27.307,63.147c-1.707,4.267-6.827,5.973-11.093,4.267
				s-9.387,0-11.093,4.267s0,9.387,4.267,11.093c3.413,0.853,6.827,1.707,10.24,1.707c10.24,0,19.627-5.973,23.04-14.507
				l27.307-63.147C230.375,403.724,228.668,398.604,224.402,396.897z"/>
		</g>
	</g>
</g>
</svg>